<mxfile host="app.diagrams.net" agent="Mozilla/5.0 (Windows NT 10.0; Win64; x64) AppleWebKit/537.36 (KHTML, like Gecko) Chrome/128.0.0.0 Safari/537.36" version="24.7.16">
  <diagram name="Page-1" id="u_PIz6emV0qA4rtQVPPR">
    <mxGraphModel dx="1434" dy="746" grid="1" gridSize="10" guides="1" tooltips="1" connect="1" arrows="1" fold="1" page="1" pageScale="1" pageWidth="827" pageHeight="1169" math="0" shadow="0">
      <root>
        <mxCell id="0" />
        <mxCell id="1" parent="0" />
        <mxCell id="fJKymjy_2eBl3symt3s9-21" value="" style="rounded=0;whiteSpace=wrap;html=1;fillColor=#ffe6cc;strokeColor=#d79b00;" vertex="1" parent="1">
          <mxGeometry x="340" y="170" width="180" height="320" as="geometry" />
        </mxCell>
        <mxCell id="fJKymjy_2eBl3symt3s9-20" value="" style="rounded=0;whiteSpace=wrap;html=1;fillColor=#dae8fc;strokeColor=#6c8ebf;" vertex="1" parent="1">
          <mxGeometry x="160" y="170" width="180" height="320" as="geometry" />
        </mxCell>
        <mxCell id="fJKymjy_2eBl3symt3s9-1" value="&lt;b&gt;&lt;font style=&quot;font-size: 18px;&quot;&gt;多任务的共享特征&lt;/font&gt;&lt;/b&gt;" style="rounded=1;whiteSpace=wrap;html=1;" vertex="1" parent="1">
          <mxGeometry x="200" y="240" width="120" height="60" as="geometry" />
        </mxCell>
        <mxCell id="fJKymjy_2eBl3symt3s9-2" value="&lt;b&gt;&lt;font style=&quot;font-size: 18px;&quot;&gt;预测头&lt;/font&gt;&lt;/b&gt;" style="rounded=1;whiteSpace=wrap;html=1;" vertex="1" parent="1">
          <mxGeometry x="200" y="360" width="120" height="40" as="geometry" />
        </mxCell>
        <mxCell id="fJKymjy_2eBl3symt3s9-3" value="&lt;b&gt;&lt;font style=&quot;font-size: 18px;&quot;&gt;可学习轻量级模块&lt;/font&gt;&lt;/b&gt;" style="rounded=1;whiteSpace=wrap;html=1;" vertex="1" parent="1">
          <mxGeometry x="360" y="240" width="120" height="60" as="geometry" />
        </mxCell>
        <mxCell id="fJKymjy_2eBl3symt3s9-4" value="" style="endArrow=classic;html=1;rounded=0;" edge="1" parent="1" target="fJKymjy_2eBl3symt3s9-1">
          <mxGeometry width="50" height="50" relative="1" as="geometry">
            <mxPoint x="260" y="160" as="sourcePoint" />
            <mxPoint x="440" y="360" as="targetPoint" />
          </mxGeometry>
        </mxCell>
        <mxCell id="fJKymjy_2eBl3symt3s9-9" value="" style="edgeStyle=orthogonalEdgeStyle;rounded=0;orthogonalLoop=1;jettySize=auto;html=1;" edge="1" parent="1" source="fJKymjy_2eBl3symt3s9-5" target="fJKymjy_2eBl3symt3s9-1">
          <mxGeometry relative="1" as="geometry" />
        </mxCell>
        <mxCell id="fJKymjy_2eBl3symt3s9-5" value="数据X" style="text;html=1;align=center;verticalAlign=middle;whiteSpace=wrap;rounded=0;" vertex="1" parent="1">
          <mxGeometry x="230" y="130" width="60" height="30" as="geometry" />
        </mxCell>
        <mxCell id="fJKymjy_2eBl3symt3s9-6" value="预测信息 Y" style="text;html=1;align=center;verticalAlign=middle;whiteSpace=wrap;rounded=0;" vertex="1" parent="1">
          <mxGeometry x="390" y="130" width="60" height="30" as="geometry" />
        </mxCell>
        <mxCell id="fJKymjy_2eBl3symt3s9-7" value="" style="endArrow=classic;html=1;rounded=0;exitX=0.5;exitY=1;exitDx=0;exitDy=0;entryX=0.5;entryY=0;entryDx=0;entryDy=0;" edge="1" parent="1" source="fJKymjy_2eBl3symt3s9-1" target="fJKymjy_2eBl3symt3s9-2">
          <mxGeometry width="50" height="50" relative="1" as="geometry">
            <mxPoint x="270" y="170" as="sourcePoint" />
            <mxPoint x="270" y="250" as="targetPoint" />
          </mxGeometry>
        </mxCell>
        <mxCell id="fJKymjy_2eBl3symt3s9-8" value="" style="endArrow=classic;html=1;rounded=0;entryX=0.675;entryY=0.033;entryDx=0;entryDy=0;entryPerimeter=0;" edge="1" parent="1" target="fJKymjy_2eBl3symt3s9-3">
          <mxGeometry width="50" height="50" relative="1" as="geometry">
            <mxPoint x="280" y="403" as="sourcePoint" />
            <mxPoint x="400" y="220" as="targetPoint" />
            <Array as="points">
              <mxPoint x="280" y="440" />
              <mxPoint x="500" y="440" />
              <mxPoint x="500" y="180" />
              <mxPoint x="441" y="180" />
            </Array>
          </mxGeometry>
        </mxCell>
        <mxCell id="fJKymjy_2eBl3symt3s9-11" value="" style="edgeStyle=orthogonalEdgeStyle;rounded=0;orthogonalLoop=1;jettySize=auto;html=1;exitX=0.5;exitY=1;exitDx=0;exitDy=0;entryX=0.5;entryY=0;entryDx=0;entryDy=0;" edge="1" parent="1" source="fJKymjy_2eBl3symt3s9-6" target="fJKymjy_2eBl3symt3s9-3">
          <mxGeometry relative="1" as="geometry">
            <mxPoint x="270" y="170" as="sourcePoint" />
            <mxPoint x="420" y="230" as="targetPoint" />
          </mxGeometry>
        </mxCell>
        <mxCell id="fJKymjy_2eBl3symt3s9-14" value="" style="endArrow=classic;html=1;rounded=0;exitX=0.5;exitY=1;exitDx=0;exitDy=0;entryX=0.5;entryY=0;entryDx=0;entryDy=0;" edge="1" parent="1" source="fJKymjy_2eBl3symt3s9-2" target="fJKymjy_2eBl3symt3s9-15">
          <mxGeometry width="50" height="50" relative="1" as="geometry">
            <mxPoint x="390" y="410" as="sourcePoint" />
            <mxPoint x="260" y="490" as="targetPoint" />
          </mxGeometry>
        </mxCell>
        <mxCell id="fJKymjy_2eBl3symt3s9-15" value="预测" style="text;html=1;align=center;verticalAlign=middle;whiteSpace=wrap;rounded=0;" vertex="1" parent="1">
          <mxGeometry x="230" y="510" width="60" height="30" as="geometry" />
        </mxCell>
        <mxCell id="fJKymjy_2eBl3symt3s9-16" value="&lt;b&gt;&lt;font style=&quot;font-size: 18px;&quot;&gt;混淆特征&lt;/font&gt;&lt;/b&gt;" style="rounded=1;whiteSpace=wrap;html=1;" vertex="1" parent="1">
          <mxGeometry x="360" y="360" width="120" height="40" as="geometry" />
        </mxCell>
        <mxCell id="fJKymjy_2eBl3symt3s9-17" value="" style="endArrow=classic;html=1;rounded=0;exitX=0.5;exitY=1;exitDx=0;exitDy=0;entryX=0.5;entryY=0;entryDx=0;entryDy=0;" edge="1" parent="1" source="fJKymjy_2eBl3symt3s9-3" target="fJKymjy_2eBl3symt3s9-16">
          <mxGeometry width="50" height="50" relative="1" as="geometry">
            <mxPoint x="390" y="410" as="sourcePoint" />
            <mxPoint x="440" y="360" as="targetPoint" />
          </mxGeometry>
        </mxCell>
        <mxCell id="fJKymjy_2eBl3symt3s9-18" value="" style="endArrow=classic;html=1;rounded=0;entryX=0.333;entryY=0;entryDx=0;entryDy=0;entryPerimeter=0;" edge="1" parent="1" target="fJKymjy_2eBl3symt3s9-16">
          <mxGeometry width="50" height="50" relative="1" as="geometry">
            <mxPoint x="280" y="302" as="sourcePoint" />
            <mxPoint x="380" y="330" as="targetPoint" />
            <Array as="points">
              <mxPoint x="280" y="320" />
              <mxPoint x="400" y="320" />
            </Array>
          </mxGeometry>
        </mxCell>
        <mxCell id="fJKymjy_2eBl3symt3s9-19" value="" style="endArrow=classic;html=1;rounded=0;exitX=0.342;exitY=1.05;exitDx=0;exitDy=0;exitPerimeter=0;" edge="1" parent="1" source="fJKymjy_2eBl3symt3s9-16">
          <mxGeometry width="50" height="50" relative="1" as="geometry">
            <mxPoint x="400" y="420" as="sourcePoint" />
            <mxPoint x="280" y="361" as="targetPoint" />
            <Array as="points">
              <mxPoint x="401" y="420" />
              <mxPoint x="350" y="420" />
              <mxPoint x="330" y="340" />
              <mxPoint x="280" y="340" />
            </Array>
          </mxGeometry>
        </mxCell>
      </root>
    </mxGraphModel>
  </diagram>
</mxfile>
